<?xml version="1.0" encoding="utf-8"?><svg xmlns="http://www.w3.org/2000/svg" xmlns:xlink="http://www.w3.org/1999/xlink" width="1366" height="657" preserveAspectRatio="xMidYMid" viewBox="0 0 1366 657" style="z-index:1;margin-right:-2px;display:block;background-repeat-y:initial;background-repeat-x:initial;background-color:rgb(241, 242, 243);animation-play-state:paused" ><g transform="translate(683,328.5) scale(1,1) translate(-683,-328.5)" style="transform:matrix(1, 0, 0, 1, 0, 0);animation-play-state:paused" ><linearGradient id="lg-0.45382922044566776" x1="0" x2="1" y1="0" y2="0" style="animation-play-state:paused" ><stop stop-color="#0bd0f8" offset="0" style="animation-play-state:paused" ></stop>

  
<stop stop-color="#5699d2" offset="1" style="animation-play-state:paused" ></stop></linearGradient>
<path d="M 0 0 L 0 586.118 Q 136.6 618.296 273.2 575.174 T 546.4 540.846 T 819.6 388.596 T 1092.8 420.411 T 1366 344.047 L 1366 0 Z" fill="url(#lg-0.45382922044566776)" opacity="0.4" style="opacity:0.4;animation-play-state:paused" ></path>
<path d="M 0 0 L 0 621.177 Q 136.6 606.775 273.2 568.567 T 546.4 451.293 T 819.6 448.106 T 1092.8 312.186 T 1366 234.797 L 1366 0 Z" fill="url(#lg-0.45382922044566776)" opacity="0.4" style="opacity:0.4;animation-play-state:paused" ></path>
<path d="M 0 0 L 0 590.203 Q 136.6 601.817 273.2 559.847 T 546.4 467.785 T 819.6 433.73 T 1092.8 341.871 T 1366 277.596 L 1366 0 Z" fill="url(#lg-0.45382922044566776)" opacity="0.4" style="opacity:0.4;animation-play-state:paused" ></path>
<path d="M 0 0 L 0 604.745 Q 136.6 523.491 273.2 501.523 T 546.4 482.55 T 819.6 374.295 T 1092.8 300.193 T 1366 326.831 L 1366 0 Z" fill="url(#lg-0.45382922044566776)" opacity="0.4" style="opacity:0.4;animation-play-state:paused" ></path>
<path d="M 0 0 L 0 605.592 Q 136.6 557.956 273.2 518.625 T 546.4 487.858 T 819.6 423.2 T 1092.8 379.538 T 1366 326.022 L 1366 0 Z" fill="url(#lg-0.45382922044566776)" opacity="0.4" style="opacity:0.4;animation-play-state:paused" ></path></g></svg>